<?xml version="1.0" encoding="UTF-8"?>
<svg id="Capa_2" data-name="Capa 2" xmlns="http://www.w3.org/2000/svg" viewBox="0 0 191.45 191.45">
  <defs>
    <style>
      .cls-1 {
        fill: #d0f0c0;
      }

      .cls-2 {
        fill: #121212;
      }
    </style>
  </defs>
  <g id="Capa_1-2" data-name="Capa 1">
    <g>
      <circle class="cls-1" cx="95.72" cy="95.72" r="95.7" transform="translate(-39.65 95.72) rotate(-45)"/>
      <path class="cls-2" d="M70.32,55.66c11.91-3.5,25.25-2.41,36.91,3.3,9.09,4.45,22.85,14.93,36.76,39.56,5.15,9.03,8.44,16.87,10.37,21.89,2.42,6.38,3.86,11.7,4.05,14.63,.02,.73,.14,3.13-1.8,4.29-.49,.29-1.89,.97-3.59-.08-14.93-8.7-27.35-7.29-40.54-5.66-10.09,1.17-20.62,2.44-32.43-1.04-13.14-3.92-23.56-11.29-29.99-21.36-5.11-7.99-7.37-17.01-6.44-26.06-4.68,.16-9.53,.59-14.43,1.22-1.6,.22-2.98-.85-3.2-2.45s.85-2.98,2.45-3.2c5.56-.77,10.92-1.17,16.2-1.29,2.27-9.02,9.27-16.75,19.19-21.36,1.99-.94,4.25-1.72,6.48-2.39Zm81.94,76.81c-1.3-5.48-5.21-16.57-12.3-29.39-6.07-11.12-18.82-30.93-35.26-38.98-6.25-3.02-13.16-4.65-20.15-4.76-6.5,.01-12.9,1.29-18.41,3.93-7.94,3.67-13.4,9.41-15.62,16.18,21.03,.44,41,5.88,62.6,16.78,1.38,.66,1.96,2.45,1.21,3.81-.66,1.38-2.45,1.96-3.81,1.21-21.04-10.65-40.53-15.97-61.19-16.22-.96,7.91,.95,15.91,5.45,23.02,5.71,8.86,14.99,15.42,26.89,18.93h0c10.64,3.19,20.1,2.07,30.1,.87,12.52-1.39,25.47-2.87,40.5,4.62Z"/>
      <g>
        <path d="M64.09,36.27l-3.94-7.72,1.87,.56-2.76,1.41-1.14-2.22,4.45-2.27,4.46,8.74-2.95,1.5Z"/>
        <path d="M72.09,32.91c-.81,.31-1.6,.39-2.37,.25-.77-.14-1.46-.5-2.09-1.09-.62-.58-1.13-1.38-1.51-2.4-.38-1.01-.53-1.95-.45-2.8,.08-.85,.37-1.58,.85-2.19,.48-.61,1.13-1.07,1.94-1.38s1.6-.39,2.37-.25c.77,.14,1.46,.5,2.09,1.08,.63,.58,1.13,1.38,1.51,2.4,.38,1.01,.53,1.95,.45,2.8-.08,.85-.37,1.58-.85,2.2-.48,.61-1.13,1.07-1.95,1.38Zm-.94-2.48c.2-.08,.35-.21,.46-.41,.1-.2,.14-.49,.1-.86-.04-.38-.17-.86-.39-1.44-.22-.59-.45-1.04-.66-1.34-.22-.3-.43-.49-.64-.57-.21-.08-.42-.08-.62,0-.2,.08-.35,.21-.46,.41-.1,.2-.14,.49-.1,.86,.04,.37,.16,.86,.39,1.45,.22,.59,.44,1.03,.66,1.34,.22,.31,.44,.5,.65,.58,.21,.08,.42,.08,.62,0Z"/>
        <path d="M81.02,30.23c-.85,.19-1.64,.16-2.38-.08-.74-.24-1.38-.7-1.92-1.36-.54-.66-.93-1.53-1.17-2.58-.24-1.06-.26-2-.06-2.83,.2-.83,.58-1.52,1.15-2.06,.56-.54,1.27-.9,2.12-1.09,.85-.19,1.64-.16,2.38,.08,.74,.25,1.38,.7,1.92,1.37,.54,.67,.93,1.53,1.16,2.58,.24,1.06,.26,2,.06,2.83-.2,.83-.58,1.52-1.15,2.05-.56,.54-1.27,.9-2.12,1.1Zm-.58-2.59c.21-.05,.38-.16,.51-.34,.13-.18,.2-.46,.22-.84,.02-.38-.05-.87-.18-1.48-.14-.62-.3-1.09-.47-1.42-.17-.33-.36-.55-.56-.66-.2-.11-.4-.14-.61-.09-.21,.05-.38,.16-.51,.34-.13,.18-.2,.46-.22,.83-.02,.37,.04,.87,.18,1.49,.14,.61,.29,1.08,.47,1.42,.18,.33,.36,.56,.56,.67,.2,.11,.4,.14,.61,.09Z"/>
        <path d="M87.88,24.22c-.49,.03-.94-.05-1.35-.24s-.73-.48-.98-.88c-.25-.4-.4-.88-.43-1.46-.03-.58,.05-1.08,.26-1.5,.21-.42,.5-.75,.88-.99,.38-.24,.82-.37,1.31-.4,.5-.03,.94,.05,1.35,.24,.4,.19,.73,.48,.99,.88,.25,.39,.4,.88,.43,1.46,.03,.58-.05,1.08-.26,1.5-.2,.43-.5,.75-.88,.99-.38,.23-.82,.37-1.31,.39Zm-.09-1.51c.16,0,.3-.1,.41-.28,.12-.18,.16-.5,.13-.97-.03-.47-.11-.78-.25-.95-.14-.17-.28-.24-.44-.23-.15,0-.28,.1-.4,.28-.12,.18-.17,.5-.14,.97,.03,.47,.11,.78,.25,.95s.29,.24,.43,.23Zm-.58,6.05l6.11-10.19,2.37-.14-6.11,10.19-2.37,.14Zm8.13-.34c-.49,.03-.94-.05-1.35-.24-.4-.19-.73-.48-.99-.88-.25-.4-.4-.88-.43-1.46s.05-1.08,.26-1.5c.2-.42,.5-.75,.88-.99,.38-.24,.82-.37,1.31-.4,.49-.03,.94,.05,1.35,.24,.4,.19,.73,.48,.98,.88,.25,.39,.4,.88,.43,1.46,.04,.58-.05,1.08-.25,1.5-.21,.42-.5,.75-.88,.99-.38,.23-.82,.36-1.31,.39Zm-.09-1.51c.16,0,.3-.1,.41-.28,.12-.18,.16-.5,.13-.97-.03-.47-.11-.78-.25-.95-.14-.17-.28-.24-.44-.23-.15,0-.28,.1-.4,.28-.12,.18-.17,.5-.14,.97,.03,.47,.11,.78,.25,.95,.14,.16,.29,.24,.44,.23Z"/>
        <path d="M106.24,29.44c-.81-.13-1.58-.35-2.31-.66-.73-.31-1.31-.65-1.75-1.02l1.44-2.21c.42,.34,.9,.64,1.44,.89,.54,.25,1.08,.42,1.62,.51,.31,.05,.56,.07,.75,.06,.19-.01,.33-.05,.42-.12,.1-.06,.15-.15,.17-.26,.03-.17-.05-.33-.22-.46s-.42-.26-.73-.38c-.31-.12-.64-.25-1.01-.39-.37-.14-.73-.3-1.09-.5-.36-.19-.68-.42-.97-.68-.29-.26-.5-.58-.63-.96s-.16-.82-.08-1.34c.1-.6,.35-1.12,.77-1.56,.42-.44,.98-.75,1.7-.94,.72-.19,1.57-.2,2.57-.04,.65,.11,1.29,.28,1.9,.52,.62,.24,1.15,.55,1.61,.92l-1.37,2.21c-.44-.32-.88-.57-1.3-.77-.43-.19-.85-.32-1.28-.39-.31-.05-.57-.06-.76-.04-.19,.02-.34,.08-.43,.16-.09,.08-.15,.17-.17,.29-.03,.17,.05,.31,.23,.44,.18,.13,.42,.25,.73,.37,.31,.12,.65,.24,1.02,.38s.74,.3,1.09,.49c.36,.19,.68,.42,.96,.68,.28,.26,.49,.58,.63,.96,.14,.37,.17,.81,.08,1.32-.1,.59-.35,1.1-.77,1.54-.42,.44-.98,.76-1.69,.95-.71,.19-1.57,.21-2.58,.04Z"/>
        <path d="M114.37,31.16c-.58-.18-1.07-.46-1.47-.83-.4-.38-.65-.86-.77-1.45s-.05-1.28,.19-2.07l1.23-4.05,3.03,.92-1.07,3.53c-.16,.52-.18,.91-.08,1.17,.11,.26,.31,.43,.6,.52,.18,.05,.36,.06,.55,.01,.18-.05,.36-.16,.52-.35,.17-.19,.3-.46,.41-.82l1.05-3.45,3.03,.92-2.23,7.34-2.89-.88,.64-2.12,.4,.75c-.43,.49-.93,.8-1.49,.93-.56,.13-1.12,.11-1.67-.06Z"/>
        <path d="M123.06,34.33c-.6-.27-1.16-.6-1.68-.98s-.92-.76-1.18-1.13l1.65-1.55c.25,.35,.56,.67,.95,.98,.39,.31,.79,.55,1.21,.74,.35,.16,.6,.23,.75,.23,.15,0,.25-.06,.3-.16,.04-.1,0-.21-.12-.32-.12-.11-.3-.23-.53-.37-.23-.13-.47-.28-.74-.45-.27-.17-.53-.35-.79-.56-.26-.21-.47-.44-.64-.7-.17-.26-.27-.55-.3-.88-.03-.32,.05-.69,.23-1.09,.2-.44,.51-.79,.94-1.02,.43-.24,.96-.34,1.59-.32,.63,.02,1.34,.21,2.12,.56,.51,.23,1,.51,1.47,.83,.47,.32,.84,.67,1.12,1.03l-1.65,1.55c-.27-.36-.56-.65-.88-.88-.31-.23-.62-.41-.92-.54-.37-.16-.63-.24-.8-.23-.16,0-.26,.06-.3,.14-.05,.1,0,.21,.11,.33,.12,.12,.3,.24,.52,.37,.23,.13,.47,.28,.74,.45,.27,.17,.53,.35,.78,.56,.25,.21,.46,.44,.63,.71,.17,.26,.27,.55,.3,.88,.03,.33-.05,.69-.23,1.09-.19,.42-.5,.75-.92,.99s-.96,.35-1.59,.33c-.64-.02-1.36-.22-2.17-.58Z"/>
        <path d="M130.48,38.19c-.91-.53-1.5-1.16-1.75-1.9-.25-.74-.12-1.56,.42-2.47l3.22-5.56,2.74,1.59-3.21,5.53c-.12,.2-.15,.39-.11,.57,.04,.18,.14,.31,.31,.41,.23,.14,.48,.19,.72,.18l-.45,2.28c-.28,0-.58-.06-.91-.17-.33-.12-.65-.27-.98-.45Zm-1.05-6.96l1.16-2,5.01,2.91-1.16,2-5.01-2.91Z"/>
        <path d="M134.37,40.73c-.5-.37-.86-.77-1.08-1.19-.21-.42-.3-.84-.26-1.26,.04-.42,.19-.8,.45-1.16,.29-.4,.64-.67,1.05-.79,.41-.13,.87-.11,1.4,.05,.52,.16,1.11,.48,1.75,.95l1.29,.95-.9,1.23-.88-.65c-.27-.2-.5-.3-.69-.3-.19,0-.34,.08-.47,.25-.11,.14-.14,.3-.1,.48s.15,.33,.34,.47c.17,.13,.37,.2,.58,.21,.22,.01,.43-.06,.65-.21l-.23,1c-.44,.39-.89,.58-1.38,.57-.48,0-.99-.21-1.53-.6Zm1.84,1.17l.8-1.1,.04-.43,1.52-2.08c.22-.3,.3-.6,.23-.89s-.31-.59-.73-.9c-.28-.2-.59-.37-.94-.49-.35-.12-.68-.18-1-.18l.42-2.28c.53,.04,1.09,.18,1.68,.43,.59,.25,1.13,.55,1.61,.91,1.06,.78,1.71,1.62,1.95,2.52s-.03,1.87-.78,2.91l-2.44,3.33-2.37-1.74Z"/>
        <path d="M139.41,44.45l5.12-5.72,2.36,2.11-5.12,5.71-2.36-2.11Zm6.71-5.12c-.43-.39-.67-.81-.73-1.27-.05-.46,.08-.86,.38-1.2,.3-.34,.69-.51,1.15-.51,.46,0,.91,.2,1.34,.58,.43,.39,.68,.8,.75,1.25,.06,.45-.06,.84-.36,1.18-.32,.36-.72,.54-1.19,.55-.47,0-.92-.19-1.35-.58Z"/>
        <path d="M142.69,47.28l5.68-5.16,2.03,2.23-1.66,1.51,.07-.88c.63-.17,1.22-.16,1.78,.02s1.04,.5,1.47,.97c.4,.44,.67,.91,.81,1.42s.12,1.04-.07,1.58c-.19,.54-.58,1.09-1.17,1.63l-3.24,2.94-2.13-2.35,2.83-2.57c.35-.32,.55-.61,.58-.87,.04-.26-.04-.5-.24-.71-.14-.16-.32-.27-.51-.34-.2-.07-.41-.07-.65,0-.24,.07-.5,.24-.78,.49l-2.67,2.42-2.13-2.35Z"/>
        <path d="M150.3,56.51c-.36-.52-.56-1.01-.62-1.48-.06-.47,0-.89,.17-1.27,.17-.38,.44-.7,.8-.95,.41-.28,.83-.42,1.25-.4,.43,.01,.86,.18,1.3,.51s.89,.82,1.34,1.47l.91,1.32-1.26,.87-.62-.9c-.19-.28-.38-.45-.55-.51-.18-.07-.35-.04-.53,.08-.15,.1-.23,.24-.25,.42-.02,.18,.04,.36,.17,.55,.12,.18,.28,.31,.48,.39,.2,.08,.43,.09,.68,.02l-.54,.87c-.54,.22-1.04,.25-1.49,.09-.45-.16-.87-.52-1.25-1.07Zm1.35,1.71l1.12-.77,.17-.39,2.12-1.46c.31-.21,.48-.47,.51-.77,.03-.3-.1-.66-.39-1.09-.2-.28-.44-.54-.73-.77-.29-.23-.58-.4-.88-.5l1.15-2.02c.49,.21,.97,.53,1.45,.96,.48,.43,.89,.89,1.23,1.38,.75,1.09,1.08,2.09,1.01,3.03-.08,.93-.64,1.76-1.69,2.49l-3.39,2.34-1.67-2.42Z"/>
        <path d="M153.89,61.55l9.28-4.71,1.43,2.83-3.35,1.7-2.56,1.14-2.51,1.26-.92,.47-1.36-2.69Zm2.19,4.63c-.32-.62-.45-1.19-.39-1.7,.06-.51,.3-.98,.74-1.42,.44-.44,1.07-.86,1.88-1.28,.81-.41,1.52-.66,2.13-.74,.61-.08,1.15,0,1.6,.27,.45,.26,.83,.68,1.13,1.28,.3,.6,.44,1.22,.41,1.87s-.23,1.25-.61,1.82c-.38,.57-.93,1.04-1.67,1.41-.73,.37-1.44,.54-2.12,.51-.68-.03-1.29-.23-1.84-.58-.54-.35-.96-.83-1.27-1.43Zm1.86-1.79c.11,.21,.25,.37,.44,.49,.19,.12,.41,.17,.66,.17,.25,0,.53-.08,.82-.23,.3-.15,.52-.33,.67-.53,.14-.2,.22-.41,.24-.62,.02-.22-.03-.43-.14-.64-.11-.21-.25-.37-.44-.49-.18-.12-.4-.17-.65-.17-.25,0-.52,.07-.82,.23-.29,.15-.51,.32-.67,.53-.15,.2-.24,.41-.25,.63-.02,.22,.03,.43,.13,.64Z"/>
        <path d="M158.04,70.17l9.71-3.73,1.13,2.96-9.71,3.73-1.14-2.96Z"/>
        <path d="M160.64,78.34c-.25-.9-.3-1.73-.15-2.5,.15-.76,.46-1.41,.94-1.94,.48-.53,1.09-.89,1.82-1.09,.75-.2,1.46-.2,2.14,0,.68,.21,1.27,.58,1.76,1.13s.86,1.22,1.08,2.01c.2,.73,.24,1.44,.12,2.14-.12,.7-.41,1.31-.88,1.84s-1.12,.91-1.96,1.14c-.11,.03-.23,.06-.36,.08-.13,.03-.25,.05-.37,.07l-1.56-5.69,1.47-.4,1.12,4.07-.71-1.04c.29-.08,.52-.2,.69-.36,.18-.16,.29-.34,.36-.56,.06-.21,.06-.44,0-.7-.07-.25-.19-.46-.35-.61-.16-.15-.36-.25-.59-.3-.23-.04-.49-.03-.78,.05l-.46,.12c-.31,.09-.57,.22-.76,.41-.19,.19-.31,.41-.36,.68-.05,.27-.03,.56,.07,.9,.09,.34,.22,.61,.37,.81s.35,.39,.6,.58l-1.17,2.04c-.49-.25-.9-.62-1.25-1.09s-.62-1.08-.83-1.82Z"/>
      </g>
      <g>
        <path d="M127.35,155.17l3.94,7.72-1.87-.56,2.76-1.41,1.13,2.22-4.45,2.27-4.46-8.74,2.95-1.5Z"/>
        <path d="M119.36,158.53c.81-.31,1.6-.39,2.37-.25,.77,.14,1.46,.5,2.09,1.09,.62,.58,1.13,1.38,1.51,2.4,.38,1.01,.53,1.95,.45,2.8-.08,.85-.37,1.58-.85,2.19-.48,.61-1.13,1.07-1.95,1.38-.81,.31-1.6,.39-2.37,.25-.77-.14-1.46-.5-2.09-1.08-.63-.58-1.13-1.38-1.51-2.4-.38-1.01-.53-1.95-.45-2.8,.08-.85,.37-1.58,.85-2.2,.48-.61,1.13-1.07,1.95-1.38Zm.94,2.48c-.2,.08-.35,.21-.46,.41s-.14,.49-.1,.86c.04,.38,.17,.86,.39,1.44,.22,.59,.45,1.04,.66,1.34,.22,.3,.43,.49,.64,.57,.21,.08,.42,.08,.62,0,.2-.08,.35-.21,.46-.41,.1-.2,.14-.48,.1-.86-.04-.37-.17-.85-.39-1.45-.22-.59-.44-1.03-.66-1.34-.22-.31-.44-.5-.65-.58-.21-.08-.42-.08-.62,0Z"/>
        <path d="M110.42,161.21c.85-.19,1.64-.16,2.38,.08,.74,.24,1.38,.7,1.92,1.36,.54,.66,.93,1.53,1.16,2.58,.24,1.06,.26,2,.06,2.83-.2,.83-.58,1.52-1.15,2.06-.56,.54-1.27,.9-2.12,1.09-.85,.19-1.64,.16-2.38-.08-.74-.25-1.38-.7-1.92-1.37-.54-.67-.92-1.53-1.16-2.58-.24-1.06-.26-2-.06-2.83,.2-.83,.58-1.52,1.15-2.05,.56-.54,1.27-.9,2.12-1.1Zm.58,2.59c-.21,.05-.38,.16-.51,.34-.13,.18-.2,.46-.22,.84-.02,.38,.05,.87,.18,1.48,.14,.62,.3,1.09,.47,1.42,.17,.33,.36,.55,.56,.66s.4,.14,.61,.09c.21-.05,.38-.16,.51-.34,.13-.18,.2-.46,.22-.83,.02-.37-.05-.87-.19-1.49-.14-.61-.29-1.08-.47-1.42s-.36-.56-.56-.67c-.2-.11-.4-.14-.61-.09Z"/>
        <path d="M96.11,163.02c.5-.03,.94,.05,1.35,.24,.4,.19,.73,.48,.99,.88,.25,.4,.4,.88,.43,1.46s-.05,1.08-.26,1.5c-.2,.42-.5,.75-.88,.99-.38,.24-.82,.37-1.31,.4-.5,.03-.95-.05-1.35-.24-.4-.19-.73-.48-.99-.88-.25-.39-.4-.88-.43-1.46-.03-.58,.05-1.08,.26-1.5,.2-.42,.5-.75,.88-.99,.38-.23,.82-.37,1.31-.39Zm.09,1.51c-.16,0-.29,.1-.41,.28-.12,.18-.16,.5-.13,.97,.03,.47,.11,.78,.25,.95,.14,.16,.28,.24,.44,.23,.15,0,.28-.1,.4-.28s.17-.5,.14-.97c-.03-.47-.11-.78-.25-.95-.14-.16-.29-.24-.44-.23Zm8.04-1.85l-6.11,10.19-2.37,.14,6.11-10.19,2.36-.14Zm-.67,4.54c.5-.03,.94,.05,1.35,.24,.4,.19,.73,.48,.99,.88,.25,.4,.4,.88,.43,1.46s-.05,1.08-.26,1.5c-.2,.42-.5,.75-.88,.99-.38,.24-.82,.37-1.31,.4-.5,.03-.94-.05-1.35-.24-.41-.19-.73-.48-.99-.88-.25-.39-.4-.88-.43-1.46-.04-.58,.05-1.08,.25-1.5,.2-.42,.5-.75,.88-.99,.38-.23,.82-.36,1.31-.39Zm.09,1.51c-.16,0-.3,.1-.41,.28s-.16,.5-.13,.97c.03,.47,.11,.78,.24,.95,.14,.17,.29,.24,.44,.23,.15,0,.28-.1,.4-.28s.17-.5,.14-.97c-.03-.47-.11-.78-.25-.95s-.29-.24-.43-.23Z"/>
        <path d="M85.21,162c.81,.13,1.58,.35,2.31,.66,.73,.31,1.31,.65,1.75,1.02l-1.44,2.21c-.42-.34-.9-.64-1.44-.89-.54-.25-1.08-.42-1.61-.51-.31-.05-.56-.07-.75-.06-.19,.01-.33,.05-.42,.12-.1,.07-.15,.15-.17,.26-.03,.17,.05,.33,.22,.46,.18,.13,.42,.26,.73,.38,.31,.12,.64,.25,1.01,.39,.37,.14,.73,.31,1.09,.5,.36,.19,.68,.42,.97,.68,.28,.26,.49,.58,.63,.96,.14,.38,.16,.82,.08,1.34-.1,.6-.35,1.12-.77,1.56-.42,.44-.98,.75-1.7,.94-.72,.19-1.57,.2-2.57,.04-.66-.11-1.29-.28-1.9-.52-.61-.24-1.15-.55-1.61-.91l1.37-2.21c.44,.32,.88,.57,1.3,.76,.43,.19,.85,.32,1.28,.39,.31,.05,.57,.06,.76,.04,.19-.03,.34-.08,.43-.16,.09-.08,.15-.17,.17-.29,.03-.17-.05-.31-.23-.44-.18-.13-.42-.25-.73-.37-.31-.12-.65-.24-1.02-.38-.37-.13-.73-.3-1.09-.49-.36-.19-.68-.42-.96-.68-.28-.26-.5-.58-.63-.96-.14-.37-.17-.81-.08-1.32,.1-.59,.35-1.1,.77-1.54,.42-.44,.98-.75,1.69-.95,.71-.19,1.57-.21,2.58-.04Z"/>
        <path d="M77.08,160.28c.58,.18,1.07,.46,1.47,.83,.4,.38,.65,.86,.77,1.45,.11,.59,.05,1.28-.19,2.07l-1.23,4.05-3.03-.92,1.07-3.53c.16-.52,.18-.91,.07-1.16-.11-.26-.31-.43-.6-.52-.18-.05-.36-.06-.55-.01-.19,.05-.36,.17-.52,.35-.17,.19-.3,.46-.41,.82l-1.05,3.45-3.03-.92,2.23-7.34,2.89,.88-.65,2.12-.4-.75c.43-.49,.93-.8,1.49-.93,.56-.13,1.12-.11,1.67,.06Z"/>
        <path d="M68.38,157.11c.6,.27,1.16,.6,1.68,.98,.52,.39,.92,.76,1.18,1.13l-1.65,1.55c-.24-.35-.56-.67-.95-.98-.39-.31-.79-.55-1.21-.74-.35-.16-.6-.23-.75-.23-.15,0-.25,.06-.29,.16-.05,.1,0,.21,.12,.32,.12,.11,.3,.23,.53,.37,.23,.13,.48,.28,.74,.45,.27,.17,.53,.35,.79,.56,.26,.21,.47,.44,.64,.7,.17,.26,.27,.55,.3,.88,.03,.32-.05,.69-.23,1.09-.2,.44-.51,.79-.94,1.02-.43,.24-.96,.34-1.59,.32-.63-.02-1.34-.21-2.12-.56-.51-.23-1-.51-1.47-.83-.47-.32-.84-.67-1.12-1.03l1.65-1.55c.27,.36,.56,.65,.88,.88,.31,.23,.62,.41,.92,.54,.37,.16,.63,.24,.79,.23,.16,0,.26-.06,.3-.14,.05-.1,0-.21-.12-.33-.12-.12-.3-.24-.52-.37-.23-.13-.48-.28-.75-.45-.27-.17-.53-.35-.78-.56s-.46-.44-.63-.71c-.17-.26-.27-.55-.3-.88-.03-.33,.05-.69,.23-1.09,.19-.42,.5-.75,.92-.99,.43-.24,.96-.35,1.59-.33s1.36,.22,2.17,.58Z"/>
        <path d="M62.04,160.23l-1.16,2-5.01-2.9,1.16-2,5.01,2.9Zm-1.05-6.96c.91,.53,1.5,1.16,1.75,1.9,.25,.74,.12,1.56-.41,2.47l-3.22,5.56-2.74-1.59,3.21-5.53c.12-.2,.15-.39,.11-.57-.04-.18-.15-.31-.31-.41-.23-.14-.48-.2-.73-.18l.45-2.28c.28,0,.58,.06,.91,.17,.33,.12,.65,.27,.98,.45Z"/>
        <path d="M55.22,149.53l-.81,1.1-.03,.43-1.53,2.08c-.22,.3-.3,.6-.23,.89,.07,.29,.31,.59,.73,.9,.28,.21,.59,.37,.94,.49s.68,.18,1,.18l-.42,2.28c-.53-.04-1.09-.18-1.68-.43-.59-.25-1.13-.55-1.61-.91-1.06-.78-1.71-1.62-1.95-2.53-.24-.9,.02-1.87,.78-2.9l2.44-3.32,2.38,1.74Zm1.84,1.17c.5,.37,.86,.77,1.07,1.19,.21,.42,.3,.84,.26,1.26-.04,.42-.19,.8-.45,1.16-.29,.4-.64,.66-1.05,.79-.41,.13-.87,.11-1.4-.05-.52-.16-1.11-.48-1.75-.95l-1.29-.95,.9-1.23,.88,.65c.27,.2,.5,.3,.69,.31,.19,0,.35-.08,.47-.25,.1-.14,.14-.3,.1-.48-.04-.17-.15-.33-.34-.47-.17-.13-.37-.2-.58-.21-.22-.01-.43,.06-.65,.21l.23-1c.44-.39,.89-.58,1.38-.57,.48,0,.99,.21,1.53,.6Z"/>
        <path d="M45.33,152.12c.43,.39,.67,.81,.73,1.27,.05,.46-.08,.86-.38,1.2-.31,.34-.69,.51-1.15,.51-.46,0-.91-.2-1.34-.58-.43-.39-.68-.8-.74-1.25-.06-.45,.06-.84,.36-1.18,.32-.36,.72-.54,1.19-.55,.47,0,.92,.19,1.35,.58Zm6.71-5.12l-5.11,5.72-2.36-2.11,5.12-5.71,2.36,2.11Z"/>
        <path d="M48.75,144.16l-5.68,5.16-2.03-2.23,1.66-1.51-.07,.88c-.63,.17-1.22,.16-1.78-.02s-1.05-.5-1.47-.97c-.4-.44-.67-.91-.81-1.42-.15-.51-.12-1.04,.07-1.58s.58-1.09,1.17-1.63l3.24-2.94,2.13,2.35-2.83,2.57c-.35,.32-.55,.61-.58,.87-.04,.26,.04,.5,.24,.71,.14,.16,.31,.27,.51,.34,.19,.07,.41,.07,.65,0,.24-.07,.5-.24,.78-.49l2.67-2.42,2.13,2.35Z"/>
        <path d="M39.8,133.22l-1.12,.77-.17,.39-2.13,1.46c-.31,.21-.48,.47-.51,.77-.03,.3,.1,.66,.39,1.09,.2,.29,.44,.54,.73,.77,.29,.23,.58,.4,.88,.5l-1.15,2.02c-.49-.21-.97-.53-1.44-.96-.48-.43-.89-.89-1.23-1.39-.75-1.09-1.08-2.09-1.01-3.03,.08-.93,.64-1.76,1.69-2.49l3.4-2.34,1.67,2.42Zm1.35,1.71c.35,.52,.56,1.01,.62,1.48,.06,.47,0,.89-.17,1.27-.17,.38-.44,.7-.8,.95-.41,.28-.83,.42-1.26,.4-.43-.01-.86-.18-1.3-.51-.44-.33-.89-.82-1.34-1.47l-.91-1.32,1.26-.87,.62,.9c.19,.28,.37,.45,.55,.51,.18,.07,.35,.04,.53-.08,.15-.1,.23-.24,.25-.42,.02-.18-.04-.36-.17-.55-.12-.18-.28-.31-.48-.39-.2-.08-.43-.09-.68-.02l.54-.87c.54-.22,1.03-.25,1.49-.09,.45,.16,.87,.52,1.24,1.07Z"/>
        <path d="M37.56,129.9l-9.28,4.71-1.43-2.83,3.35-1.7,2.57-1.14,2.51-1.26,.93-.47,1.36,2.69Zm-2.19-4.63c.32,.62,.45,1.19,.39,1.7-.06,.51-.3,.98-.74,1.42s-1.07,.86-1.88,1.28c-.81,.41-1.52,.66-2.13,.74-.62,.08-1.15,0-1.6-.27-.45-.26-.83-.68-1.13-1.28-.3-.6-.44-1.22-.41-1.87,.03-.64,.23-1.25,.61-1.82,.38-.57,.93-1.04,1.67-1.41,.73-.37,1.44-.54,2.12-.51,.68,.03,1.29,.22,1.83,.58,.54,.35,.96,.83,1.27,1.43Zm-1.86,1.79c-.11-.21-.25-.37-.44-.49-.18-.12-.4-.17-.66-.17-.25,0-.53,.08-.82,.23-.3,.15-.52,.33-.67,.53-.14,.2-.23,.41-.24,.62s.03,.43,.14,.64c.11,.21,.25,.37,.44,.49,.18,.12,.4,.17,.65,.17,.25,0,.52-.07,.82-.23,.29-.15,.51-.32,.67-.53,.15-.2,.24-.41,.25-.63s-.03-.43-.14-.64Z"/>
        <path d="M33.4,121.27l-9.71,3.73-1.14-2.96,9.71-3.73,1.14,2.96Z"/>
        <path d="M30.81,113.1c.25,.9,.3,1.73,.15,2.5-.15,.76-.46,1.41-.94,1.94-.48,.53-1.09,.89-1.82,1.09-.75,.21-1.46,.21-2.14,0-.68-.21-1.27-.58-1.76-1.13-.5-.55-.86-1.22-1.07-2.01-.2-.73-.24-1.44-.12-2.14,.12-.7,.41-1.31,.88-1.84,.47-.53,1.12-.91,1.96-1.14,.11-.03,.23-.06,.36-.08,.13-.03,.25-.05,.37-.07l1.56,5.69-1.47,.4-1.12-4.07,.71,1.04c-.29,.08-.52,.2-.69,.36-.18,.16-.29,.34-.36,.56-.06,.21-.06,.44,0,.7,.07,.25,.19,.46,.35,.61,.16,.15,.36,.25,.59,.29,.23,.04,.49,.03,.78-.05l.46-.13c.32-.09,.57-.22,.76-.41,.19-.19,.31-.41,.36-.68,.05-.26,.03-.56-.06-.9-.09-.34-.22-.61-.37-.81-.15-.2-.35-.39-.6-.58l1.17-2.04c.49,.25,.9,.62,1.25,1.09s.62,1.08,.83,1.82Z"/>
      </g>
    </g>
  </g>
</svg>