<?xml version="1.0" encoding="UTF-8"?>
<svg id="Capa_2" data-name="Capa 2" xmlns="http://www.w3.org/2000/svg" viewBox="0 0 304.46 183.79">
  <defs>
    <style>
      .cls-1 {
        fill: #121212;
      }
    </style>
  </defs>
  <g id="logo">
    <g id="logo-2" data-name="logo">
      <path class="cls-1" d="M116.87,117.46c-1.17,0-2.15,.32-2.92,.96-.77,.64-1.28,1.54-1.51,2.72h8.86c-.23-1.14-.74-2.04-1.51-2.69-.77-.65-1.75-.98-2.92-.98Z"/>
      <path class="cls-1" d="M184.17,68.79c0,.64,.24,1.17,.73,1.59,.49,.42,1.15,.63,1.99,.63s1.53-.22,2.16-.65c.64-.44,1.11-1.09,1.41-1.96v-1.91h-2.82c-2.32,0-3.47,.77-3.47,2.32Z"/>
      <path class="cls-1" d="M158.95,58.04c-.77-.65-1.75-.98-2.92-.98s-2.15,.32-2.92,.96c-.77,.64-1.28,1.54-1.51,2.72h8.86c-.23-1.14-.74-2.04-1.51-2.69Z"/>
      <path class="cls-1" d="M0,0V183.79H304.46V0H0ZM207.47,49.81h10.82v2.72c1.07-1.07,2.31-1.88,3.72-2.42,1.41-.54,2.94-.81,4.58-.81,3.39,0,6.12,1.02,8.18,3.07,2.06,2.05,3.1,5.13,3.1,9.26v15.7h-11.38v-13.74c0-3.15-1.12-4.73-3.37-4.73-1.28,0-2.31,.45-3.1,1.33-.79,.89-1.18,2.29-1.18,4.2v12.94h-11.38v-27.53Zm-22.25,7.95c-1.24,0-2.5,.19-3.77,.58-1.28,.39-2.37,.91-3.27,1.59l-3.62-7.5c1.58-.97,3.48-1.74,5.71-2.29,2.23-.55,4.45-.83,6.67-.83,4.83,0,8.52,1.08,11.07,3.25,2.55,2.16,3.83,5.5,3.83,9.99v14.8h-10.57v-3.62c-1.31,2.75-3.91,4.13-7.8,4.13-2.18,0-4.04-.38-5.56-1.13-1.53-.75-2.69-1.78-3.47-3.07-.79-1.29-1.18-2.74-1.18-4.35,0-2.72,1.04-4.78,3.12-6.19,2.08-1.41,5.23-2.11,9.46-2.11h4.58c-.37-2.15-2.1-3.22-5.18-3.22Zm-94.83,0c-1.24,0-2.5,.19-3.77,.58-1.28,.39-2.37,.91-3.27,1.59l-3.62-7.5c1.58-.97,3.48-1.74,5.71-2.29,2.23-.55,4.45-.83,6.67-.83,4.83,0,8.52,1.08,11.07,3.25,2.55,2.16,3.83,5.5,3.83,9.99v14.8h-10.57v-3.62c-1.31,2.75-3.91,4.13-7.8,4.13-2.18,0-4.04-.38-5.56-1.13-1.53-.75-2.69-1.78-3.47-3.07-.79-1.29-1.18-2.74-1.18-4.35,0-2.72,1.04-4.78,3.12-6.19,2.08-1.41,5.23-2.11,9.46-2.11h4.58c-.37-2.15-2.1-3.22-5.18-3.22Zm-44.59,80.48c-3.86,0-6.83-.93-8.91-2.79-2.08-1.86-3.12-4.66-3.12-8.38v-7.05h-3.77v-8.3h3.77v-7.7h11.38v7.7h5.64v8.3h-5.64v6.95c0,.84,.22,1.49,.65,1.96,.44,.47,1.01,.7,1.71,.7,.97,0,1.83-.25,2.57-.75l2.72,7.9c-1.71,.97-4.04,1.46-7,1.46Zm4.28-89.49c-.94-.44-1.8-.65-2.57-.65-.84,0-1.5,.26-1.99,.78-.49,.52-.73,1.32-.73,2.39v.05h5.99v8.3h-5.64v17.72h-11.38v-17.72h-3.77v-8.3h3.77v-.15c0-3.59,1.07-6.43,3.22-8.53,2.15-2.1,5.17-3.15,9.06-3.15,1.27,0,2.52,.12,3.72,.35,1.21,.24,2.21,.57,3.02,1.01l-2.72,7.9Zm17.67,88.99h-11.38v-27.53h11.38v27.53Zm-.71-31.43c-1.24,1.12-2.9,1.69-4.98,1.69s-3.7-.54-4.96-1.64c-1.26-1.09-1.89-2.47-1.89-4.15s.63-3.06,1.89-4.15c1.26-1.09,2.91-1.64,4.96-1.64s3.74,.52,4.98,1.56c1.24,1.04,1.86,2.38,1.86,4.03,0,1.75-.62,3.18-1.86,4.3Zm.71-41.2v12.23h-11.38v-27.53h10.82v2.97c2.01-2.32,4.98-3.47,8.91-3.47v10.07c-.91-.13-1.75-.2-2.52-.2-3.89,0-5.84,1.98-5.84,5.94Zm29.14,68.5c-1.07,1.41-2.69,2.53-4.83,3.37-2.15,.84-4.75,1.26-7.8,1.26-2.35,0-4.66-.25-6.95-.75-2.28-.5-4.13-1.16-5.54-1.96l3.12-7.5c1.27,.77,2.79,1.38,4.53,1.81,1.74,.44,3.44,.65,5.08,.65,1.31,0,2.22-.11,2.74-.33,.52-.22,.78-.54,.78-.98s-.33-.74-.98-.91c-.65-.17-1.72-.33-3.2-.5-2.25-.27-4.16-.61-5.74-1.03-1.58-.42-2.96-1.23-4.15-2.44-1.19-1.21-1.79-2.94-1.79-5.18,0-1.78,.54-3.37,1.61-4.78,1.07-1.41,2.68-2.53,4.81-3.37,2.13-.84,4.69-1.26,7.68-1.26,2.08,0,4.12,.19,6.12,.58,2,.39,3.7,.95,5.11,1.69l-3.12,7.5c-2.42-1.34-5.07-2.01-7.95-2.01-2.48,0-3.72,.44-3.72,1.31,0,.44,.33,.75,1.01,.93,.67,.19,1.73,.36,3.17,.53,2.25,.27,4.15,.62,5.71,1.06,1.56,.44,2.94,1.26,4.13,2.47,1.19,1.21,1.79,2.94,1.79,5.18,0,1.71-.54,3.27-1.61,4.68Zm34.88-7h-19.13c.4,1.04,1.07,1.84,2.01,2.39,.94,.55,2.11,.83,3.52,.83,1.21,0,2.22-.15,3.05-.45,.82-.3,1.72-.82,2.69-1.56l5.94,5.99c-2.69,2.95-6.69,4.43-12.03,4.43-3.32,0-6.24-.61-8.76-1.84-2.52-1.22-4.46-2.93-5.84-5.11-1.38-2.18-2.06-4.63-2.06-7.35s.68-5.21,2.04-7.37c1.36-2.16,3.22-3.85,5.59-5.06,2.37-1.21,5.02-1.81,7.98-1.81,2.78,0,5.33,.55,7.63,1.66,2.3,1.11,4.13,2.74,5.49,4.88,1.36,2.15,2.04,4.71,2.04,7.7,0,.17-.05,1.06-.15,2.67Zm-.55-50.03c-2.15,.84-4.75,1.26-7.8,1.26-2.35,0-4.66-.25-6.95-.75-2.28-.5-4.13-1.16-5.54-1.96l3.12-7.5c1.27,.77,2.79,1.38,4.53,1.81,1.74,.44,3.44,.65,5.08,.65,1.31,0,2.22-.11,2.74-.33,.52-.22,.78-.54,.78-.98s-.33-.74-.98-.91c-.65-.17-1.72-.33-3.2-.5-2.25-.27-4.16-.61-5.74-1.03-1.58-.42-2.96-1.23-4.15-2.44-1.19-1.21-1.79-2.94-1.79-5.18,0-1.78,.54-3.37,1.61-4.78,1.07-1.41,2.68-2.53,4.81-3.37,2.13-.84,4.69-1.26,7.68-1.26,2.08,0,4.12,.19,6.12,.58,2,.39,3.7,.95,5.11,1.69l-3.12,7.5c-2.42-1.34-5.07-2.01-7.95-2.01-2.48,0-3.72,.44-3.72,1.31,0,.44,.33,.75,1.01,.93,.67,.19,1.73,.36,3.17,.53,2.25,.27,4.15,.62,5.71,1.06,1.56,.44,2.94,1.26,4.13,2.47,1.19,1.21,1.79,2.94,1.79,5.18,0,1.71-.54,3.27-1.61,4.68-1.07,1.41-2.69,2.53-4.83,3.37Zm24.71,43.19c-.91-.13-1.75-.2-2.52-.2-3.89,0-5.84,1.98-5.84,5.94v12.23h-11.38v-27.53h10.82v2.97c2.01-2.32,4.98-3.47,8.91-3.47v10.07Zm-7.7-43.76c-2.52-1.22-4.46-2.93-5.84-5.11-1.38-2.18-2.06-4.63-2.06-7.35s.68-5.21,2.04-7.37c1.36-2.16,3.22-3.85,5.59-5.06,2.37-1.21,5.02-1.81,7.98-1.81,2.78,0,5.33,.55,7.63,1.66,2.3,1.11,4.13,2.74,5.49,4.88,1.36,2.15,2.04,4.71,2.04,7.7,0,.17-.05,1.06-.15,2.67h-19.13c.4,1.04,1.07,1.84,2.01,2.39,.94,.55,2.11,.83,3.52,.83,1.21,0,2.22-.15,3.05-.45,.82-.3,1.72-.82,2.69-1.56l5.94,5.99c-2.69,2.95-6.69,4.43-12.03,4.43-3.32,0-6.24-.61-8.76-1.84Zm25.67,62.24c-3.86,0-6.83-.93-8.91-2.79-2.08-1.86-3.12-4.66-3.12-8.38v-7.05h-3.77v-8.3h3.77v-7.7h11.38v7.7h5.64v8.3h-5.64v6.95c0,.84,.22,1.49,.65,1.96,.44,.47,1.01,.7,1.71,.7,.97,0,1.83-.25,2.57-.75l2.72,7.9c-1.71,.97-4.04,1.46-7,1.46Zm100.56,5.54h-91.51v-6.04h91.51v6.04Zm0-66.44h-10.82v-2.27c-1.64,1.85-4.16,2.77-7.55,2.77-2.42,0-4.64-.58-6.67-1.74-2.03-1.16-3.64-2.83-4.83-5.01-1.19-2.18-1.79-4.7-1.79-7.55s.6-5.36,1.79-7.52c1.19-2.16,2.8-3.83,4.83-4.98,2.03-1.16,4.25-1.74,6.67-1.74,3.05,0,5.39,.79,7,2.37v-11.68h11.38v37.35Z"/>
      <path class="cls-1" d="M258.81,58.17c-1.31,0-2.38,.47-3.22,1.41-.84,.94-1.26,2.27-1.26,3.98s.42,3.04,1.26,4c.84,.96,1.91,1.43,3.22,1.43s2.38-.48,3.22-1.43c.84-.96,1.26-2.29,1.26-4s-.42-3.04-1.26-3.98c-.84-.94-1.91-1.41-3.22-1.41Z"/>
      <path class="cls-1" d="M89.34,68.79c0,.64,.24,1.17,.73,1.59,.49,.42,1.15,.63,1.99,.63s1.53-.22,2.16-.65c.64-.44,1.11-1.09,1.41-1.96v-1.91h-2.82c-2.32,0-3.47,.77-3.47,2.32Z"/>
    </g>
  </g>
</svg>